<?xml version="1.0" standalone="no"?>
<!DOCTYPE svg PUBLIC "-//W3C//DTD SVG 20010904//EN"
 "http://www.w3.org/TR/2001/REC-SVG-20010904/DTD/svg10.dtd">
<svg version="1.0" xmlns="http://www.w3.org/2000/svg"
 width="1200.000000pt" height="1459.000000pt" viewBox="0 0 1200.000000 1459.000000"
 preserveAspectRatio="xMidYMid meet">
<metadata>
Created by potrace 1.16, written by Peter Selinger 2001-2019
</metadata>
<g transform="translate(0.000000,1459.000000) scale(0.100000,-0.100000)"
fill="#000000" stroke="none">
<path d="M5145 14568 c-60 -11 -114 -23 -118 -27 -4 -5 322 -541 726 -1192
l733 -1184 100 -8 c305 -23 525 -51 731 -93 31 -6 32 -4 114 117 164 245 372
524 562 753 55 65 95 122 90 126 -11 11 -278 85 -437 121 -419 95 -894 145
-1323 138 l-209 -4 -395 637 -394 638 -35 -1 c-19 -1 -84 -10 -145 -21z"/>
<path d="M11380 14467 c-852 -398 -1577 -904 -2225 -1552 -1519 -1521 -2489
-3742 -2755 -6308 -11 -108 -20 -214 -20 -235 -1 -37 -1 -37 -31 28 -93 200
-233 598 -308 874 -193 709 -270 1487 -201 2036 13 99 55 316 70 354 11 30 53
-3 -408 325 -299 214 -313 223 -335 208 -53 -35 -214 -186 -307 -289 -341
-374 -619 -796 -895 -1353 -274 -554 -449 -1027 -671 -1813 -241 -857 -376
-1297 -546 -1782 -576 -1641 -1208 -2541 -2052 -2921 -181 -82 -405 -146 -601
-172 l-90 -13 -3 -34 c-3 -43 83 -898 91 -907 4 -3 73 4 154 16 1210 175 2151
974 2878 2446 219 444 389 861 581 1430 153 452 244 755 534 1784 120 427 238
772 385 1126 78 187 255 555 267 555 4 0 8 -15 8 -32 0 -18 9 -101 19 -183
136 -1054 485 -2057 967 -2780 51 -77 135 -194 186 -260 98 -128 417 -455 443
-455 8 0 186 84 394 186 l380 187 0 406 c0 489 15 783 62 1226 162 1545 608
2956 1319 4172 30 51 55 91 56 90 2 -1 -12 -63 -31 -137 -174 -694 -282 -1693
-231 -2133 49 -422 178 -758 401 -1042 64 -82 208 -228 280 -286 244 -195 564
-329 892 -375 175 -24 476 -15 635 19 578 126 1011 460 1260 972 l63 130 3
518 c2 490 2 517 -15 517 -10 0 -191 -9 -403 -22 l-385 -22 -1 -145 c-6 -552
-237 -894 -682 -1007 -160 -41 -362 -31 -522 24 -294 102 -473 320 -558 676
-25 105 -27 125 -26 361 0 254 15 439 65 805 147 1091 486 1956 1052 2689 335
433 769 844 1263 1195 82 59 160 115 173 124 l24 18 -224 412 c-123 226 -229
412 -234 412 -6 0 -71 -28 -145 -63z"/>
<path d="M4103 14296 c-68 -23 -125 -45 -129 -49 -3 -3 301 -502 677 -1109
375 -607 683 -1104 684 -1105 0 -1 50 9 110 23 219 49 470 85 683 97 l42 2
-338 545 c-331 535 -338 545 -367 542 -17 -2 -120 -22 -230 -44 -110 -22 -211
-43 -225 -45 -23 -4 -49 35 -394 591 -203 328 -374 596 -380 595 -6 0 -66 -19
-133 -43z"/>
<path d="M3142 13881 c-63 -32 -118 -63 -124 -69 -7 -7 202 -351 653 -1080
l663 -1069 115 54 c146 69 399 172 514 209 69 22 87 32 84 45 -3 12 -598 980
-613 998 -4 5 -321 -123 -386 -155 -26 -13 -53 -24 -60 -24 -7 0 -173 259
-368 575 -195 316 -357 574 -360 574 -3 0 -56 -26 -118 -58z"/>
<path d="M2244 13320 c-60 -44 -109 -84 -109 -89 0 -12 1327 -2151 1334 -2151
3 0 62 46 131 101 69 55 206 155 305 221 99 67 179 126 179 133 -2 19 -596
975 -606 975 -12 0 -186 -110 -301 -191 l-97 -69 -43 68 c-24 37 -184 295
-357 575 -173 279 -317 507 -321 507 -3 0 -55 -36 -115 -80z"/>
<path d="M1441 12626 l-104 -104 693 -1118 c381 -616 696 -1122 700 -1127 3
-4 39 38 80 94 97 134 204 261 340 402 l110 115 -306 493 c-168 272 -310 498
-314 503 -5 5 -84 -65 -184 -163 -173 -172 -174 -173 -189 -149 -9 12 -171
275 -362 583 -190 308 -350 563 -354 567 -3 4 -53 -39 -110 -96z"/>
<path d="M731 11800 c-45 -60 -84 -116 -87 -124 -5 -13 1505 -2464 1522 -2469
4 -1 31 57 60 130 71 178 158 358 255 529 45 79 82 146 82 150 2 12 -658 1073
-665 1071 -12 -3 -141 -182 -220 -304 -40 -62 -76 -113 -79 -113 -3 0 -178
279 -390 620 -211 341 -387 620 -390 620 -4 0 -44 -49 -88 -110z"/>
<path d="M1238 9993 c-229 -493 -395 -1097 -463 -1675 -53 -460 -44 -1011 25
-1484 112 -767 380 -1500 793 -2167 33 -53 63 -97 67 -97 9 0 103 235 195 485
75 202 189 544 274 816 l61 197 -59 178 c-151 454 -218 843 -228 1314 -9 429
32 803 132 1197 l24 93 -376 608 c-207 334 -381 613 -388 620 -9 10 -21 -7
-57 -85z"/>
<path d="M11800 6412 c-320 -214 -715 -364 -1105 -421 -69 -10 -128 -20 -130
-22 -2 -2 -22 -46 -44 -97 l-41 -93 736 -1187 c404 -652 737 -1188 739 -1191
3 -2 14 4 25 14 19 17 20 31 20 240 l0 221 -325 524 c-179 289 -324 527 -323
530 241 481 304 627 413 955 59 176 165 561 165 597 0 15 -16 6 -130 -70z"/>
<path d="M10279 5398 c-98 -171 -253 -395 -391 -569 l-29 -36 681 -1099 c375
-604 685 -1102 689 -1106 3 -4 53 39 110 96 l104 104 -373 601 -372 601 64 77
c134 163 250 325 245 342 -6 23 -660 1081 -668 1081 -4 0 -30 -42 -60 -92z"/>
<path d="M9628 4540 c-42 -53 -255 -250 -381 -354 -55 -44 -113 -93 -130 -107
l-31 -26 664 -1071 664 -1072 25 17 c15 9 67 47 118 84 l92 68 -48 78 c-26 43
-189 305 -361 583 l-312 504 38 31 c65 51 206 174 272 237 l63 60 -312 504
c-172 277 -316 504 -320 504 -5 0 -23 -18 -41 -40z"/>
<path d="M8720 3814 c-74 -46 -226 -130 -337 -185 -130 -65 -200 -105 -196
-113 214 -351 1317 -2124 1327 -2130 9 -6 50 10 132 54 65 34 120 64 122 65 2
2 -158 264 -355 582 l-359 579 95 53 c129 71 321 191 321 199 0 11 -600 977
-608 978 -4 1 -68 -36 -142 -82z"/>
<path d="M4217 3678 c-107 -255 -207 -475 -329 -718 -81 -162 -146 -295 -145
-296 1 -1 54 -28 117 -59 723 -361 1518 -567 2284 -592 193 -6 198 -6 188 13
-6 10 -177 287 -381 614 l-369 595 -58 12 c-412 88 -761 207 -1110 379 -94 46
-174 84 -178 84 -3 0 -12 -15 -19 -32z"/>
<path d="M7830 3399 c-138 -49 -384 -114 -540 -145 -80 -15 -147 -29 -149 -30
-3 -2 1372 -2228 1386 -2244 7 -7 278 87 276 96 -1 5 -164 271 -362 592 -199
320 -361 584 -361 586 0 3 30 14 68 26 177 58 393 143 390 154 -5 18 -612 996
-618 995 -3 0 -43 -14 -90 -30z"/>
<path d="M5943 3167 c13 -33 1498 -2423 1511 -2431 10 -7 62 -1 153 15 108 19
138 28 137 40 -1 8 -171 288 -378 622 -207 334 -376 612 -376 617 0 6 15 10
33 10 37 0 257 32 389 56 58 11 88 20 86 28 -2 7 -149 247 -327 534 l-323 523
-142 -8 c-182 -10 -454 -10 -630 0 -119 7 -138 6 -133 -6z"/>
</g>
</svg>
